<?xml version="1.0" encoding="iso-8859-1"?>
<!-- Generator: Adobe Illustrator 19.0.0, SVG Export Plug-In . SVG Version: 6.00 Build 0)  -->
<svg version="1.1" id="Layer_1" xmlns="http://www.w3.org/2000/svg" xmlns:xlink="http://www.w3.org/1999/xlink" x="0px" y="0px"
	 viewBox="0 0 512 512" style="enable-background:new 0 0 512 512;" xml:space="preserve">
<path style="fill:#B36E44;" d="M358.052,416.572V314.481c0-32.906-26.666-59.582-59.559-59.582h-50.416
	c-5.627,0-10.188-4.563-10.188-10.192V122.475h-34.482v149.371c0,12.246,9.923,22.174,22.165,22.174h41.835
	c6.246,0,11.31,5.066,11.31,11.314v111.238H358.052z"/>
<path style="fill:#8C5635;" d="M293.094,416.572V303.137c0-13.401-10.864-24.265-24.265-24.265h-42.354
	c-3.835,0-6.944-3.109-6.944-6.944V122.475h-16.125v149.371c0,12.246,9.928,22.174,22.174,22.174h41.826
	c6.246,0,11.31,5.064,11.31,11.31v111.242L293.094,416.572L293.094,416.572z"/>
<path style="fill:#A9CF54;" d="M355.182,101.918v2.363c0,0.366,0,0.742-0.01,1.108v0.104c-0.648,24.962-20.94,45.262-45.902,45.91
	h-0.094c-7.053-0.178-13.699-1.986-19.571-5.059c-6.541,6.094-15.297,9.837-24.952,9.837c-9.362,0-17.889-3.512-24.357-9.292
	c-5.925,2.906-12.601,4.527-19.644,4.527c-7.314,0-14.221-1.746-20.313-4.85c-6.51,5.968-15.182,9.617-24.712,9.617
	c-9.477,0-18.087-3.606-24.586-9.502c-5.716,2.875-12.131,4.558-18.923,4.725h-0.094c-24.952-0.648-45.244-20.948-45.892-45.91
	v-0.104c-0.01-0.366-0.01-0.742-0.01-1.108v-2.363c0-44.927,36.749-81.69,81.659-81.69h105.733
	C318.433,20.228,355.182,56.992,355.182,101.918z"/>
<path style="fill:#92B83D;" d="M102.88,105.932v-0.104c-0.01-0.366-0.01-0.742-0.01-1.108v-2.363
	c0-44.927,36.749-81.69,81.659-81.69h97.413c-2.772-0.287-5.584-0.438-8.429-0.438H167.779c-44.91,0-81.659,36.764-81.659,81.69
	v2.361c0,0.366,0,0.742,0.01,1.108v0.104c0.648,24.962,20.94,45.262,45.892,45.91h0.094c2.47-0.061,4.888-0.327,7.242-0.773
	C118.902,145.857,103.445,127.665,102.88,105.932z"/>
<circle cx="214.246" cy="58.138" r="7.837"/>
<circle cx="156.776" cy="73.822" r="7.837"/>
<circle cx="245.238" cy="92.494" r="7.837"/>
<circle cx="288.569" cy="70.353" r="7.837"/>
<path style="fill:#B36E44;" d="M322.525,280.254h59.304c3.463,0,6.269-2.808,6.269-6.271v-81.751h30.65v84.051
	c0,20.283-16.436,36.725-36.711,36.725h-46.625L322.525,280.254z"/>
<path style="fill:#8C5635;" d="M388.099,192.231v81.751c0,3.464-2.808,6.272-6.271,6.272h-59.302l0,0
	c3.29,8.362,11.361,13.861,20.347,13.861h39.083c11.842,0,21.442-9.599,21.442-21.442V192.23h-15.299V192.231z"/>
<path style="fill:#A9CF54;" d="M492.747,197.688v1.569c0,0.243,0,0.493-0.007,0.736v0.069c-0.43,16.578-13.907,30.061-30.486,30.491
	h-0.063c-4.684-0.118-9.098-1.319-12.999-3.36c-4.345,4.047-10.16,6.533-16.572,6.533c-6.218,0-11.88-2.332-16.176-6.172
	c-3.935,1.93-8.37,3.006-13.047,3.006c-4.858,0-9.445-1.16-13.491-3.221c-4.324,3.964-10.083,6.387-16.412,6.387
	c-6.294,0-12.012-2.395-16.329-6.31c-3.796,1.909-8.057,3.027-12.568,3.138h-0.063c-16.572-0.431-30.049-13.913-30.48-30.491v-0.069
	c-0.007-0.243-0.007-0.493-0.007-0.736v-1.569c0-29.838,24.407-54.254,54.233-54.254h70.222
	C468.34,143.434,492.747,167.85,492.747,197.688z"/>
<path style="fill:#92B83D;" d="M327.902,200.063v-0.07c-0.007-0.242-0.007-0.493-0.007-0.736v-1.569
	c0-29.838,24.407-54.254,54.233-54.254h-13.845c-29.827,0-54.233,24.416-54.233,54.254v1.569c0,0.243,0,0.493,0.007,0.736v0.069
	c0.43,16.578,13.908,30.061,30.48,30.491h0.063c2.361-0.059,4.651-0.398,6.845-0.977
	C338.199,226.166,328.27,214.252,327.902,200.063z"/>
<circle cx="442.671" cy="189.691" r="7.837"/>
<circle cx="400.906" cy="169.305" r="7.837"/>
<circle cx="366.153" cy="192.815" r="7.837"/>
<path style="fill:#B36E44;" d="M296.854,324.585H168.71c-13.923,0-25.21-11.291-25.21-25.221v-62.803h-30.651v65.416
	c0,30.575,24.776,55.36,55.339,55.36h128.667V324.585z"/>
<path style="fill:#8C5635;" d="M181.617,344.686c-41.774,0-54.557-20.245-54.557-57.203v-51.832l-14.211,0.912v65.416
	c0,30.575,24.776,55.36,55.338,55.36h124.907c0-6.915-5.606-12.522-12.522-12.522L181.617,344.686z"/>
<path style="fill:#A9CF54;" d="M214.243,242.835v1.569c0,0.243,0,0.493-0.007,0.736v0.069c-0.43,16.578-13.907,30.061-30.486,30.491
	h-0.063c-4.684-0.118-9.098-1.319-12.999-3.36c-4.345,4.048-10.16,6.533-16.572,6.533c-6.218,0-11.88-2.332-16.176-6.172
	c-3.935,1.93-8.37,3.006-13.047,3.006c-4.858,0-9.445-1.16-13.491-3.221c-4.324,3.964-10.083,6.387-16.412,6.387
	c-6.294,0-12.012-2.395-16.329-6.31c-3.796,1.909-8.057,3.027-12.568,3.138h-0.063c-16.572-0.43-30.049-13.913-30.479-30.491v-0.069
	c-0.007-0.243-0.007-0.493-0.007-0.736v-1.569c0-29.838,24.407-54.254,54.233-54.254h70.222
	C189.836,188.58,214.243,212.996,214.243,242.835z"/>
<path style="fill:#92B83D;" d="M49.485,245.209v-0.069c-0.007-0.242-0.007-0.493-0.007-0.736v-1.569
	c0-29.838,24.407-54.254,54.233-54.254H89.78c-29.827,0-54.233,24.416-54.233,54.254v1.569c0,0.243,0,0.493,0.007,0.736v0.069
	c0.431,16.578,13.908,30.061,30.479,30.491h0.063c2.376-0.059,4.68-0.403,6.886-0.988C59.759,271.285,49.853,259.382,49.485,245.209
	z"/>
<circle cx="82.38" cy="233.723" r="7.837"/>
<circle cx="167.361" cy="233.723" r="7.837"/>
<circle cx="124.897" cy="217.297" r="7.837"/>
<path style="fill:#F75534;" d="M504.163,400.718v0.01c0,34.628-28.076,62.704-62.704,62.704H70.541
	c-34.628,0-62.704-28.076-62.704-62.704v-0.01c0-2.309,1.87-4.18,4.18-4.18h487.967
	C502.293,396.539,504.163,398.409,504.163,400.718z"/>
<path style="fill:#BD391E;" d="M99.485,463.433H70.541c-34.628,0-62.704-28.076-62.704-62.704v-0.01c0-2.309,1.87-4.18,4.18-4.18
	h17.283c-2.309,0-4.18,1.87-4.18,4.18v0.01C25.119,435.357,64.836,463.433,99.485,463.433z"/>
<path style="fill:#362928;" d="M438.575,463.433v23.186c0,2.842-2.309,5.151-5.151,5.151H78.576c-2.842,0-5.151-2.309-5.151-5.151
	v-23.186H438.575z"/>
<path style="fill:#2E2322;" d="M95.911,491.771H78.576c-2.842,0-5.151-2.309-5.151-5.151v-23.186h18.808v23.186
	C92.233,489.462,93.884,491.771,95.911,491.771z"/>
<path d="M65.585,471.079v15.538c0,7.163,5.827,12.991,12.991,12.991h354.849c7.163,0,12.991-5.828,12.991-12.991v-15.538
	C483.006,468.523,512,437.957,512,400.717c0-6.626-5.391-12.016-12.017-12.016H365.892v-16.372c0-4.328-3.508-7.837-7.837-7.837
	s-7.837,3.509-7.837,7.837V388.7h-63.666v-23.529h10.302c4.329,0,7.837-3.509,7.837-7.837s-3.508-7.837-7.837-7.837H168.187
	c-26.191,0-47.501-21.318-47.501-47.522V283.3c1.396,0.157,2.8,0.243,4.208,0.243c3.703,0,7.304-0.528,10.766-1.563v17.383
	c0,18.229,14.826,33.061,33.05,33.061h128.146c4.329,0,7.837-3.509,7.837-7.837s-3.508-7.837-7.837-7.837h-10.302V305.33
	c0-10.556-8.588-19.143-19.143-19.143h-41.838c-7.899,0-14.326-6.431-14.326-14.336v-0.423c6.489-6.796,10.561-15.922,10.822-26.015
	c0.001-0.037,0.002-0.093,0.002-0.148c0.007-0.285,0.008-0.577,0.008-0.861v-1.569c0-12.972-4.004-25.024-10.832-34.996v-49.441
	c3.097,0.56,6.247,0.853,9.404,0.853c3.193,0,6.332-0.278,9.404-0.83v86.283c0,9.945,8.085,18.035,18.024,18.035h50.416
	c10.912,0,21.393,3.481,30.065,9.676h-6.032c-4.329,0-7.837,3.509-7.837,7.837s3.508,7.837,7.837,7.837h24.721
	c0.003,0,0.005,0,0.008,0c0.002,0,0.004,0,0.007,0h34.561c7.778,0,14.106-6.328,14.106-14.106v-36.338
	c2.451,0.494,4.956,0.753,7.466,0.753c2.559,0,5.069-0.25,7.518-0.746v38.63c0,15.931-12.956,28.891-28.881,28.891h-46.624
	c-4.329,0-7.837,3.509-7.837,7.837c0,4.328,3.508,7.837,7.837,7.837h14.806v18.045c0,4.328,3.508,7.837,7.837,7.837
	s7.837-3.509,7.837-7.837v-18.045h16.144c24.568,0,44.554-19.992,44.554-44.565v-35.307c1.976,0.377,3.992,0.588,6.031,0.588
	c6.36,0,12.494-1.866,17.721-5.329c3.721,1.329,7.621,2.052,11.65,2.155c0.134,0.003,0.329,0.003,0.463,0
	c20.833-0.541,37.577-17.286,38.117-38.121c0.001-0.041,0.002-0.104,0.003-0.164c0.005-0.28,0.006-0.566,0.006-0.845v-1.568
	c0-34.237-27.847-62.091-62.076-62.091h-70.222c-5.806,0-11.423,0.819-16.757,2.318c6.927-8.945,11.163-20.084,11.477-32.218
	c0.002-0.066,0.003-0.132,0.003-0.199c0.01-0.403,0.011-0.816,0.011-1.217v-2.361c0-49.365-40.152-89.527-89.506-89.527H229.18
	c-4.329,0-7.837,3.509-7.837,7.837s3.508,7.837,7.837,7.837h44.332c40.711,0,73.832,33.131,73.832,73.853v2.361
	c0,0.286,0.001,0.581-0.007,0.868c-0.003,0.08-0.004,0.16-0.004,0.239c-0.591,20.825-17.3,37.556-38.115,38.176
	c-5.639-0.164-11.016-1.565-15.983-4.164c-2.944-1.541-6.544-1.057-8.976,1.21c-5.352,4.986-12.316,7.733-19.611,7.733
	c-7.073,0-13.868-2.591-19.134-7.299c-2.376-2.126-5.809-2.598-8.674-1.193c-0.66,0.324-1.328,0.624-2.001,0.906
	c0,0-0.001,0-0.002,0.001c-4.47,1.87-9.233,2.819-14.19,2.819c-5.914,0-11.552-1.345-16.755-3.996
	c-2.916-1.485-6.445-1.003-8.854,1.207c-5.314,4.872-12.21,7.556-19.415,7.556c-7.15,0-14.011-2.653-19.321-7.469
	c-2.399-2.177-5.892-2.654-8.787-1.196c-4.849,2.439-10.077,3.747-15.439,3.887c-20.812-0.615-37.52-17.349-38.112-38.178
	c0-0.072-0.001-0.144-0.003-0.216c-0.008-0.294-0.007-0.596-0.007-0.89v-2.363c0-40.723,33.116-73.853,73.821-73.853h29.36
	c4.329,0,7.837-3.509,7.837-7.837s-3.508-7.837-7.837-7.837h-29.36c-49.348,0-89.494,40.162-89.494,89.527v2.361
	c0,0.398,0.001,0.806,0.01,1.206v0.006c0,0.068,0.001,0.136,0.003,0.204c0.76,29.262,24.27,52.78,53.523,53.54
	c0.067,0.001,0.23,0.002,0.297,0.002c0.065,0,0.129-0.001,0.193-0.002c6.078-0.149,11.958-1.313,17.542-3.469
	c7.499,5.349,16.479,8.248,25.776,8.248c7.002,0,13.814-1.639,19.947-4.728v32.705c-10.082-7.078-22.345-11.25-35.571-11.25H89.78
	c-34.226,0-62.07,27.854-62.07,62.091v1.568c0,0.277,0.001,0.56,0.007,0.838c0,0.057,0.001,0.114,0.003,0.171
	c0.541,20.835,17.281,37.58,38.108,38.121c0.133,0.003,0.327,0.003,0.46,0c3.868-0.095,7.625-0.766,11.219-2.001
	c5.179,3.364,11.232,5.176,17.484,5.176c3.443,0,6.815-0.566,10.021-1.619v16.887c0,34.846,28.34,63.195,63.175,63.195h102.693
	V388.7h-79.315c-4.329,0-7.837,3.509-7.837,7.837s3.508,7.837,7.837,7.837h87.112c0.014,0,0.026,0.002,0.041,0.002
	c0.015,0,0.027-0.002,0.041-0.002h79.259c0.014,0,0.026,0.002,0.041,0.002c0.015,0,0.027-0.002,0.041-0.002h138.111
	c-1.882,28.562-25.719,51.225-54.75,51.225H70.543c-29.027,0-52.862-22.657-54.748-51.225h139.548c4.329,0,7.837-3.509,7.837-7.837
	s-3.508-7.837-7.837-7.837H12.017C5.391,388.7,0,394.091,0,400.73C0,437.959,28.994,468.523,65.585,471.079z M438.506,151.271
	c25.586,0,46.403,20.823,46.403,46.418v1.568c0,0.178,0.001,0.36-0.004,0.539c0,0.033-0.001,0.087-0.001,0.138
	c-0.362,12.402-10.296,22.369-22.685,22.78c-3.315-0.109-6.474-0.937-9.393-2.464c-2.947-1.541-6.544-1.057-8.976,1.21
	c-3.067,2.857-7.054,4.429-11.23,4.429c-4.049,0-7.94-1.484-10.954-4.179c-1.468-1.311-3.335-1.994-5.224-1.994
	c-1.171,0-2.352,0.262-3.449,0.801c-2.983,1.463-6.212,2.205-9.596,2.205c-3.509,0-6.851-0.796-9.933-2.367
	c-2.914-1.485-6.444-1.003-8.854,1.206c-3.043,2.79-6.99,4.327-11.117,4.327c-4.093,0-8.023-1.519-11.063-4.278
	c-2.4-2.178-5.892-2.654-8.787-1.197c-2.833,1.424-5.885,2.198-9.074,2.3c-12.381-0.41-22.311-10.369-22.677-22.765
	c0-0.062-0.002-0.123-0.003-0.186c-0.005-0.167-0.004-0.339-0.004-0.506v-1.568c0-25.595,20.813-46.418,46.397-46.418
	L438.506,151.271L438.506,151.271z M290.788,155.51c5.769,2.317,11.866,3.568,18.19,3.727c0.066,0.001,0.226,0.002,0.29,0.002
	c0.067,0,0.136-0.001,0.203-0.002c3.895-0.101,7.683-0.616,11.334-1.485c-9.097,10.804-14.593,24.737-14.593,39.936v1.568
	c0,0.277,0.001,0.56,0.007,0.838c0,0.057,0.001,0.114,0.003,0.17c0.54,20.835,17.278,37.581,38.108,38.122
	c0.134,0.002,0.327,0.003,0.459,0c3.869-0.095,7.626-0.766,11.22-2.001c5.177,3.364,11.232,5.176,17.483,5.176
	c2.295,0,4.559-0.25,6.765-0.723v31.576h-29.096c-12.747-15.945-32.137-25.349-52.667-25.349h-50.416
	c-1.296,0-2.351-1.06-2.351-2.361v-84.924c5.867,2.765,12.315,4.237,18.922,4.237C274.116,164.017,283.22,161.027,290.788,155.51z
	 M225.573,301.861h41.838c1.913,0,3.469,1.556,3.469,3.469v11.421h-102.17c-9.582,0-17.377-7.8-17.377-17.387v-12.787
	c0.924,0.08,1.851,0.134,2.785,0.134c6.36,0,12.494-1.866,17.721-5.329c3.723,1.33,7.624,2.053,11.652,2.155
	c0.134,0.003,0.33,0.003,0.462,0c4.586-0.119,8.973-1.025,13.034-2.586C200.848,293.061,212.2,301.861,225.573,301.861z
	 M83.927,266.757c-2.4-2.177-5.892-2.654-8.787-1.197c-2.833,1.424-5.885,2.198-9.074,2.3c-12.379-0.41-22.309-10.369-22.677-22.764
	c0-0.063-0.002-0.124-0.003-0.187c-0.005-0.167-0.004-0.339-0.004-0.506v-1.568c0-25.595,20.813-46.417,46.397-46.417h70.222
	c14.997,0,28.349,7.16,36.837,18.236c0.19,0.294,0.4,0.572,0.627,0.836c5.615,7.676,8.94,17.128,8.94,27.346v1.568
	c0,0.167,0.001,0.339-0.004,0.506c-0.001,0.043-0.002,0.108-0.002,0.169c-0.193,6.654-3.158,12.59-7.763,16.742
	c-0.296,0.228-0.577,0.473-0.837,0.74c-3.859,3.162-8.741,5.123-14.084,5.3c-3.314-0.108-6.473-0.936-9.395-2.465
	c-2.943-1.54-6.543-1.056-8.975,1.21c-3.067,2.857-7.054,4.429-11.23,4.429c-4.049,0-7.94-1.484-10.955-4.179
	c-1.467-1.311-3.334-1.994-5.223-1.994c-1.171,0-2.352,0.262-3.449,0.8c-2.982,1.463-6.212,2.205-9.596,2.205
	c-3.508,0-6.85-0.796-9.932-2.367c-2.914-1.485-6.444-1.003-8.854,1.206c-3.043,2.79-6.99,4.327-11.117,4.327
	C90.898,271.036,86.968,269.517,83.927,266.757z M430.741,471.272v12.662H81.259v-12.662H430.741z"/>
<g>
</g>
<g>
</g>
<g>
</g>
<g>
</g>
<g>
</g>
<g>
</g>
<g>
</g>
<g>
</g>
<g>
</g>
<g>
</g>
<g>
</g>
<g>
</g>
<g>
</g>
<g>
</g>
<g>
</g>
</svg>
